<svg xmlns="http://www.w3.org/2000/svg" viewBox="0 0 168.56 275.24" data-guides="{&quot;vertical&quot;:[],&quot;horizontal&quot;:[]}"><defs/><path fill="#faff3e" fill-opacity="1" stroke="#000000" stroke-opacity="1" stroke-width="1" id="tSvg7f98e2287a" title="Ellipse 1" d="M20 44.18C92.9016 44.18 152 100.3683 152 169.68C152 238.9917 92.9016 295.18 20 295.18C-52.9016 295.18 -112 238.9917 -112 169.68C-112 100.3683 -52.9016 44.18 20 44.18Z" style="display: none; transform-origin: 20px 169.68px 0px;"/><path fill="transparent" stroke="#000000" fill-opacity="1" stroke-width="1" stroke-opacity="1" title="Ellipse 2" d="M41.821 230.2839C42.7859 231.0418 43.9962 231.4177 45.2207 231.3397C45.2207 231.3397 297.3535 196.7598 214.3193 257.4608C138.8978 312.5966 330.9397 339.4608 4.3193 333.4608C-97.2839 331.5943 -111.0188 302.546 -110.6807 251.4608C-109.6807 100.3744 41.821 230.2839 41.821 230.2839ZM-104.4819 80.6404" id="tSvg7e4afdf788" style="display: none; transform-origin: 73px 251.68px 0px;"/><path fill="#fbf3ad" stroke="#000000" fill-opacity="1" stroke-width="1" stroke-opacity="1" title="Ellipse 3" d="M148 1.68C217.864 1.68 77.778 -16.6376 82 137.18C86.2154 290.7551 205.864 273.68 136 273.68C66.136 273.68 1 212.843 1 137.18C1 61.517 78.136 1.68 148 1.68Z" id="tSvg11d5832bad4" style="transform-origin: 127.5px 137.18px 0px;"/></svg>